<mxfile host="drawio-plugin" modified="2023-06-21T21:01:02.801Z" agent="5.0 (Windows NT 6.2; Win64; x64) AppleWebKit/537.36 (KHTML, like Gecko) Chrome/89.0.4389.114 Safari/537.36" etag="o0peVb6llLm7vV4kdqFD" version="20.5.3" type="embed"><diagram name="Page-1" id="2YBvvXClWsGukQMizWep"><mxGraphModel dx="2140" dy="945" grid="1" gridSize="10" guides="1" tooltips="1" connect="1" arrows="1" fold="1" page="1" pageScale="1" pageWidth="827" pageHeight="1169" math="0" shadow="0"><root><mxCell id="0"/><mxCell id="1" parent="0"/><mxCell id="198" value="" style="rounded=0;whiteSpace=wrap;html=1;fontSize=11;" parent="1" vertex="1"><mxGeometry x="4" y="120" width="812" height="960" as="geometry"/></mxCell><mxCell id="205" value="" style="rounded=0;whiteSpace=wrap;html=1;fontSize=11;" parent="1" vertex="1"><mxGeometry x="17" y="230" width="792" height="800" as="geometry"/></mxCell><mxCell id="208" value="" style="rounded=0;whiteSpace=wrap;html=1;fontSize=11;" parent="1" vertex="1"><mxGeometry x="24" y="286" width="780" height="709" as="geometry"/></mxCell><mxCell id="211" value="" style="rounded=0;whiteSpace=wrap;html=1;fontSize=11;" parent="1" vertex="1"><mxGeometry x="30" y="330" width="450" height="180" as="geometry"/></mxCell><mxCell id="103" value="DeliveryManager" style="shape=umlLifeline;perimeter=lifelinePerimeter;whiteSpace=wrap;html=1;container=0;dropTarget=0;collapsible=0;recursiveResize=0;outlineConnect=0;portConstraint=eastwest;newEdgeStyle={&quot;edgeStyle&quot;:&quot;elbowEdgeStyle&quot;,&quot;elbow&quot;:&quot;vertical&quot;,&quot;curved&quot;:0,&quot;rounded&quot;:0};" parent="1" vertex="1"><mxGeometry x="-824" y="11" width="100" height="1079" as="geometry"/></mxCell><mxCell id="104" value="&lt;font style=&quot;font-size: 10px;&quot;&gt;SystemFacade&lt;/font&gt;" style="shape=umlLifeline;perimeter=lifelinePerimeter;whiteSpace=wrap;html=1;container=0;dropTarget=0;collapsible=0;recursiveResize=0;outlineConnect=0;portConstraint=eastwest;newEdgeStyle={&quot;edgeStyle&quot;:&quot;elbowEdgeStyle&quot;,&quot;elbow&quot;:&quot;vertical&quot;,&quot;curved&quot;:0,&quot;rounded&quot;:0};" parent="1" vertex="1"><mxGeometry x="-598" y="11" width="70" height="1079" as="geometry"/></mxCell><mxCell id="105" value="" style="html=1;points=[];perimeter=orthogonalPerimeter;outlineConnect=0;targetShapes=umlLifeline;portConstraint=eastwest;newEdgeStyle={&quot;edgeStyle&quot;:&quot;elbowEdgeStyle&quot;,&quot;elbow&quot;:&quot;vertical&quot;,&quot;curved&quot;:0,&quot;rounded&quot;:0};" parent="104" vertex="1"><mxGeometry x="30" y="68" width="10" height="1002" as="geometry"/></mxCell><mxCell id="106" value="&lt;font style=&quot;font-size: 8px;&quot;&gt;DeliveryController&lt;/font&gt;" style="shape=umlLifeline;perimeter=lifelinePerimeter;whiteSpace=wrap;html=1;container=0;dropTarget=0;collapsible=0;recursiveResize=0;outlineConnect=0;portConstraint=eastwest;newEdgeStyle={&quot;edgeStyle&quot;:&quot;elbowEdgeStyle&quot;,&quot;elbow&quot;:&quot;vertical&quot;,&quot;curved&quot;:0,&quot;rounded&quot;:0};" parent="1" vertex="1"><mxGeometry x="30" y="11" width="70" height="1079" as="geometry"/></mxCell><mxCell id="107" value="" style="html=1;points=[];perimeter=orthogonalPerimeter;outlineConnect=0;targetShapes=umlLifeline;portConstraint=eastwest;newEdgeStyle={&quot;edgeStyle&quot;:&quot;elbowEdgeStyle&quot;,&quot;elbow&quot;:&quot;vertical&quot;,&quot;curved&quot;:0,&quot;rounded&quot;:0};" parent="106" vertex="1"><mxGeometry x="30" y="100" width="10" height="950" as="geometry"/></mxCell><mxCell id="197" value="" style="html=1;points=[];perimeter=orthogonalPerimeter;outlineConnect=0;targetShapes=umlLifeline;portConstraint=eastwest;newEdgeStyle={&quot;edgeStyle&quot;:&quot;elbowEdgeStyle&quot;,&quot;elbow&quot;:&quot;vertical&quot;,&quot;curved&quot;:0,&quot;rounded&quot;:0};" parent="106" vertex="1"><mxGeometry x="30" y="169" width="10" height="20" as="geometry"/></mxCell><mxCell id="196" value="" style="edgeStyle=elbowEdgeStyle;elbow=vertical;endArrow=classic;html=1;rounded=0;" parent="106" source="197" target="197" edge="1"><mxGeometry width="50" height="50" relative="1" as="geometry"><mxPoint x="-106.5" y="183.236875" as="sourcePoint"/><mxPoint x="-106.5" y="203.236875" as="targetPoint"/><Array as="points"><mxPoint x="50" y="179"/></Array></mxGeometry></mxCell><mxCell id="204" value="" style="html=1;points=[];perimeter=orthogonalPerimeter;outlineConnect=0;targetShapes=umlLifeline;portConstraint=eastwest;newEdgeStyle={&quot;edgeStyle&quot;:&quot;elbowEdgeStyle&quot;,&quot;elbow&quot;:&quot;vertical&quot;,&quot;curved&quot;:0,&quot;rounded&quot;:0};" parent="106" vertex="1"><mxGeometry x="30" y="195" width="10" height="20" as="geometry"/></mxCell><mxCell id="202" value="" style="edgeStyle=elbowEdgeStyle;elbow=vertical;endArrow=classic;html=1;rounded=0;" parent="106" source="204" target="204" edge="1"><mxGeometry width="50" height="50" relative="1" as="geometry"><mxPoint x="-105.5" y="180.23687500000005" as="sourcePoint"/><mxPoint x="-105.5" y="200.23687500000005" as="targetPoint"/><Array as="points"><mxPoint x="50" y="209"/></Array></mxGeometry></mxCell><mxCell id="108" value="&lt;font style=&quot;font-size: 11px;&quot;&gt;ResourceController&lt;/font&gt;" style="shape=umlLifeline;perimeter=lifelinePerimeter;whiteSpace=wrap;html=1;container=0;dropTarget=0;collapsible=0;recursiveResize=0;outlineConnect=0;portConstraint=eastwest;newEdgeStyle={&quot;edgeStyle&quot;:&quot;elbowEdgeStyle&quot;,&quot;elbow&quot;:&quot;vertical&quot;,&quot;curved&quot;:0,&quot;rounded&quot;:0};" parent="1" vertex="1"><mxGeometry x="210" y="10" width="102" height="1079" as="geometry"/></mxCell><mxCell id="114" value="ItemDelivery" style="shape=umlLifeline;perimeter=lifelinePerimeter;whiteSpace=wrap;html=1;container=0;dropTarget=0;collapsible=0;recursiveResize=0;outlineConnect=0;portConstraint=eastwest;newEdgeStyle={&quot;edgeStyle&quot;:&quot;elbowEdgeStyle&quot;,&quot;elbow&quot;:&quot;vertical&quot;,&quot;curved&quot;:0,&quot;rounded&quot;:0};" parent="1" vertex="1"><mxGeometry x="271" y="340" width="70" height="750" as="geometry"/></mxCell><mxCell id="116" value="ItemDelivery" style="shape=umlLifeline;perimeter=lifelinePerimeter;whiteSpace=wrap;html=1;container=0;dropTarget=0;collapsible=0;recursiveResize=0;outlineConnect=0;portConstraint=eastwest;newEdgeStyle={&quot;edgeStyle&quot;:&quot;elbowEdgeStyle&quot;,&quot;elbow&quot;:&quot;vertical&quot;,&quot;curved&quot;:0,&quot;rounded&quot;:0};" parent="1" vertex="1"><mxGeometry x="408" y="450" width="70" height="640" as="geometry"/></mxCell><mxCell id="133" value="" style="endArrow=open;html=1;rounded=0;horizontal=1;dashed=1;dashPattern=8 8;endFill=0;" parent="1" edge="1"><mxGeometry width="50" height="50" relative="1" as="geometry"><mxPoint x="-330" y="1071" as="sourcePoint"/><mxPoint x="-560" y="1071" as="targetPoint"/><Array as="points"><mxPoint x="-392" y="1071"/><mxPoint x="-502" y="1071"/></Array></mxGeometry></mxCell><mxCell id="134" value="&lt;font style=&quot;font-size: 12px;&quot;&gt;Delivery&lt;/font&gt;" style="shape=umlLifeline;perimeter=lifelinePerimeter;whiteSpace=wrap;html=1;container=0;dropTarget=0;collapsible=0;recursiveResize=0;outlineConnect=0;portConstraint=eastwest;newEdgeStyle={&quot;edgeStyle&quot;:&quot;elbowEdgeStyle&quot;,&quot;elbow&quot;:&quot;vertical&quot;,&quot;curved&quot;:0,&quot;rounded&quot;:0};" parent="1" vertex="1"><mxGeometry x="452" y="10" width="70" height="1080" as="geometry"/></mxCell><mxCell id="136" value="&lt;span style=&quot;background-color: rgb(248, 249, 250);&quot;&gt;1.1:&lt;/span&gt;&lt;br style=&quot;background-color: rgb(248, 249, 250);&quot;&gt;&lt;span style=&quot;background-color: rgb(248, 249, 250);&quot;&gt;addItemToDelivery(dlvId, itmOrdId, direct, stage)&lt;/span&gt;" style="html=1;verticalAlign=bottom;endArrow=block;edgeStyle=elbowEdgeStyle;elbow=vertical;curved=0;rounded=0;" parent="1" source="105" target="140" edge="1"><mxGeometry x="0.0261" relative="1" as="geometry"><mxPoint x="-580" y="141" as="sourcePoint"/><Array as="points"><mxPoint x="-490" y="91"/><mxPoint x="-470" y="141"/><mxPoint x="260" y="101"/><mxPoint x="180" y="151"/><mxPoint x="250" y="91"/></Array><mxPoint as="offset"/><mxPoint x="-400" y="141" as="targetPoint"/></mxGeometry></mxCell><mxCell id="137" value="&lt;span style=&quot;background-color: rgb(248, 249, 250);&quot;&gt;&lt;font style=&quot;&quot;&gt;1:&lt;br&gt;addItemToDelivery(dlvId, itmOrdId, direct, stage)&lt;/font&gt;&lt;/span&gt;" style="html=1;verticalAlign=bottom;startArrow=oval;endArrow=block;startSize=8;edgeStyle=elbowEdgeStyle;elbow=vertical;curved=0;rounded=0;" parent="1" source="103" target="105" edge="1"><mxGeometry x="-0.0191" y="2" relative="1" as="geometry"><mxPoint x="-804.9651162790697" y="81" as="sourcePoint"/><Array as="points"><mxPoint x="-660" y="81"/><mxPoint x="-640" y="71"/><mxPoint x="110" y="71"/><mxPoint x="50" y="71"/><mxPoint x="160" y="91"/><mxPoint x="130" y="111"/></Array><mxPoint as="offset"/><mxPoint x="-570" y="81" as="targetPoint"/></mxGeometry></mxCell><mxCell id="138" value="&lt;span style=&quot;background-color: rgb(248, 249, 250);&quot;&gt;1.1.1:&lt;/span&gt;&lt;br style=&quot;background-color: rgb(248, 249, 250);&quot;&gt;&lt;span style=&quot;background-color: rgb(248, 249, 250);&quot;&gt;addItemToDelivery(dlvId, itmOrdId, direct, stage)&lt;/span&gt;" style="html=1;verticalAlign=bottom;endArrow=block;edgeStyle=elbowEdgeStyle;elbow=vertical;curved=0;rounded=0;" parent="1" source="140" target="Bc3wxz4l5R2YYqvCJoII-310" edge="1"><mxGeometry x="0.2929" y="11" relative="1" as="geometry"><mxPoint x="-548" y="101" as="sourcePoint"/><Array as="points"><mxPoint x="-240" y="111"/><mxPoint x="-240" y="151"/><mxPoint x="-480" y="101"/><mxPoint x="-460" y="151"/><mxPoint x="270" y="111"/><mxPoint x="190" y="161"/><mxPoint x="260" y="101"/></Array><mxPoint as="offset"/><mxPoint x="-120" y="111" as="targetPoint"/></mxGeometry></mxCell><mxCell id="139" value="&lt;font style=&quot;font-size: 9px;&quot;&gt;DeliveryService&lt;/font&gt;" style="shape=umlLifeline;perimeter=lifelinePerimeter;whiteSpace=wrap;html=1;container=0;dropTarget=0;collapsible=0;recursiveResize=0;outlineConnect=0;portConstraint=eastwest;newEdgeStyle={&quot;edgeStyle&quot;:&quot;elbowEdgeStyle&quot;,&quot;elbow&quot;:&quot;vertical&quot;,&quot;curved&quot;:0,&quot;rounded&quot;:0};" parent="1" vertex="1"><mxGeometry x="-358" y="11" width="70" height="1079" as="geometry"/></mxCell><mxCell id="140" value="" style="html=1;points=[];perimeter=orthogonalPerimeter;outlineConnect=0;targetShapes=umlLifeline;portConstraint=eastwest;newEdgeStyle={&quot;edgeStyle&quot;:&quot;elbowEdgeStyle&quot;,&quot;elbow&quot;:&quot;vertical&quot;,&quot;curved&quot;:0,&quot;rounded&quot;:0};" parent="139" vertex="1"><mxGeometry x="30" y="80" width="10" height="980" as="geometry"/></mxCell><mxCell id="161" value="DALFacade" style="shape=umlLifeline;perimeter=lifelinePerimeter;whiteSpace=wrap;html=1;container=0;dropTarget=0;collapsible=0;recursiveResize=0;outlineConnect=0;portConstraint=eastwest;newEdgeStyle={&quot;edgeStyle&quot;:&quot;elbowEdgeStyle&quot;,&quot;elbow&quot;:&quot;vertical&quot;,&quot;curved&quot;:0,&quot;rounded&quot;:0};" parent="1" vertex="1"><mxGeometry x="530" y="10" width="70" height="1080" as="geometry"/></mxCell><mxCell id="167" value="ItemDelivery&lt;br&gt;DAO" style="shape=umlLifeline;perimeter=lifelinePerimeter;whiteSpace=wrap;html=1;container=0;dropTarget=0;collapsible=0;recursiveResize=0;outlineConnect=0;portConstraint=eastwest;newEdgeStyle={&quot;edgeStyle&quot;:&quot;elbowEdgeStyle&quot;,&quot;elbow&quot;:&quot;vertical&quot;,&quot;curved&quot;:0,&quot;rounded&quot;:0};" parent="1" vertex="1"><mxGeometry x="609" y="10" width="71" height="1080" as="geometry"/></mxCell><mxCell id="193" value="&lt;font style=&quot;font-size: 11px;&quot;&gt;return(message)&lt;/font&gt;" style="text;html=1;align=center;verticalAlign=middle;whiteSpace=wrap;rounded=0;" parent="1" vertex="1"><mxGeometry x="-487" y="1048" width="60" height="30" as="geometry"/></mxCell><mxCell id="195" value="1.1.1.1: getDelivery(deliveryId)" style="text;html=1;align=center;verticalAlign=middle;whiteSpace=wrap;rounded=0;" parent="1" vertex="1"><mxGeometry x="70" y="166" width="150" height="30" as="geometry"/></mxCell><mxCell id="199" value="[stage = 0&lt;br&gt;OR (stage = 1 &amp;amp; direct = false)]" style="text;html=1;align=center;verticalAlign=middle;whiteSpace=wrap;rounded=0;fontSize=11;" parent="1" vertex="1"><mxGeometry x="54" y="120" width="199" height="30" as="geometry"/></mxCell><mxCell id="200" value="&lt;b&gt;alt&lt;/b&gt;" style="rounded=0;whiteSpace=wrap;html=1;fontSize=11;" parent="1" vertex="1"><mxGeometry x="4" y="120" width="51" height="25" as="geometry"/></mxCell><mxCell id="203" value="1.1.1.2: getItemOrder(itmId)" style="text;html=1;align=center;verticalAlign=middle;whiteSpace=wrap;rounded=0;" parent="1" vertex="1"><mxGeometry x="63" y="195" width="150" height="30" as="geometry"/></mxCell><mxCell id="206" value="&lt;b&gt;alt&lt;/b&gt;" style="rounded=0;whiteSpace=wrap;html=1;fontSize=11;" parent="1" vertex="1"><mxGeometry x="17" y="230" width="30" height="25" as="geometry"/></mxCell><mxCell id="207" value="[delivery != null]" style="text;html=1;align=center;verticalAlign=middle;whiteSpace=wrap;rounded=0;fontSize=11;" parent="1" vertex="1"><mxGeometry x="80" y="230" width="83.5" height="30" as="geometry"/></mxCell><mxCell id="209" value="&lt;b&gt;alt&lt;/b&gt;" style="rounded=0;whiteSpace=wrap;html=1;fontSize=11;" parent="1" vertex="1"><mxGeometry x="24" y="283" width="30" height="25" as="geometry"/></mxCell><mxCell id="210" value="[itmOrder != null]" style="text;html=1;align=center;verticalAlign=middle;whiteSpace=wrap;rounded=0;fontSize=11;" parent="1" vertex="1"><mxGeometry x="80" y="286" width="90" height="30" as="geometry"/></mxCell><mxCell id="212" value="&lt;b&gt;alt&lt;/b&gt;" style="rounded=0;whiteSpace=wrap;html=1;fontSize=11;" parent="1" vertex="1"><mxGeometry x="30" y="329" width="30" height="25" as="geometry"/></mxCell><mxCell id="214" value="&lt;span style=&quot;background-color: rgb(248, 249, 250);&quot;&gt;1.1.1.3:&lt;/span&gt;&lt;br style=&quot;background-color: rgb(248, 249, 250);&quot;&gt;new(Id, delivId, itmOrder, source, dest)" style="html=1;verticalAlign=bottom;endArrow=block;edgeStyle=elbowEdgeStyle;elbow=vertical;curved=0;rounded=0;" parent="1" source="107" edge="1"><mxGeometry x="-0.0031" relative="1" as="geometry"><mxPoint x="-32" y="359.9999999999999" as="sourcePoint"/><Array as="points"><mxPoint x="244" y="360"/><mxPoint x="-186" y="121"/><mxPoint x="-186" y="161"/><mxPoint x="-426" y="111"/><mxPoint x="-406" y="161"/><mxPoint x="324" y="121"/><mxPoint x="244" y="171"/><mxPoint x="314" y="111"/></Array><mxPoint as="offset"/><mxPoint x="270" y="360" as="targetPoint"/></mxGeometry></mxCell><mxCell id="213" value="[direct = true]" style="text;html=1;align=center;verticalAlign=middle;whiteSpace=wrap;rounded=0;fontSize=11;" parent="1" vertex="1"><mxGeometry x="61" y="324" width="83.5" height="30" as="geometry"/></mxCell><mxCell id="215" value="" style="endArrow=open;html=1;rounded=0;horizontal=1;dashed=1;dashPattern=8 8;endFill=0;" parent="1" source="114" target="107" edge="1"><mxGeometry width="50" height="50" relative="1" as="geometry"><mxPoint x="-318" y="878" as="sourcePoint"/><mxPoint x="-548" y="878" as="targetPoint"/><Array as="points"><mxPoint x="150" y="380"/><mxPoint x="70" y="380"/></Array></mxGeometry></mxCell><mxCell id="216" value="&lt;font style=&quot;font-size: 11px;&quot;&gt;return(itemDelivery)&lt;/font&gt;" style="text;html=1;align=center;verticalAlign=middle;whiteSpace=wrap;rounded=0;" parent="1" vertex="1"><mxGeometry x="140" y="355" width="60" height="30" as="geometry"/></mxCell><mxCell id="217" value="ItemDelivery" style="shape=umlLifeline;perimeter=lifelinePerimeter;whiteSpace=wrap;html=1;container=0;dropTarget=0;collapsible=0;recursiveResize=0;outlineConnect=0;portConstraint=eastwest;newEdgeStyle={&quot;edgeStyle&quot;:&quot;elbowEdgeStyle&quot;,&quot;elbow&quot;:&quot;vertical&quot;,&quot;curved&quot;:0,&quot;rounded&quot;:0};" parent="1" vertex="1"><mxGeometry x="338" y="398" width="70" height="692" as="geometry"/></mxCell><mxCell id="218" value="" style="endArrow=none;dashed=1;html=1;dashPattern=1 3;strokeWidth=2;rounded=0;fontSize=11;entryX=1.001;entryY=0.336;entryDx=0;entryDy=0;entryPerimeter=0;" parent="1" target="211" edge="1"><mxGeometry width="50" height="50" relative="1" as="geometry"><mxPoint x="32" y="390" as="sourcePoint"/><mxPoint x="771" y="390" as="targetPoint"/></mxGeometry></mxCell><mxCell id="220" value="&lt;span style=&quot;background-color: rgb(248, 249, 250);&quot;&gt;&amp;nbsp; &amp;nbsp; &amp;nbsp; &amp;nbsp; &amp;nbsp; &amp;nbsp; &amp;nbsp; &amp;nbsp; &amp;nbsp; &amp;nbsp; &amp;nbsp; &amp;nbsp; &amp;nbsp; &amp;nbsp; &amp;nbsp; &amp;nbsp;1.1.1.4:&lt;/span&gt;&lt;br style=&quot;background-color: rgb(248, 249, 250);&quot;&gt;new(Id, delivId, itemOrder, centerAddress,destination)" style="html=1;verticalAlign=bottom;endArrow=block;edgeStyle=elbowEdgeStyle;elbow=vertical;curved=0;rounded=0;" parent="1" source="107" edge="1"><mxGeometry relative="1" as="geometry"><mxPoint x="-75.5" y="420" as="sourcePoint"/><Array as="points"><mxPoint x="244.5" y="420"/><mxPoint x="-185.5" y="181"/><mxPoint x="-185.5" y="221"/><mxPoint x="-425.5" y="171"/><mxPoint x="-405.5" y="221"/><mxPoint x="324.5" y="181"/><mxPoint x="244.5" y="231"/><mxPoint x="314.5" y="171"/></Array><mxPoint as="offset"/><mxPoint x="338" y="420" as="targetPoint"/></mxGeometry></mxCell><mxCell id="219" value="[direct = false &amp;amp; stage = 0]" style="text;html=1;align=center;verticalAlign=middle;whiteSpace=wrap;rounded=0;fontSize=11;" parent="1" vertex="1"><mxGeometry x="64" y="383" width="143.5" height="30" as="geometry"/></mxCell><mxCell id="221" value="" style="endArrow=open;html=1;rounded=0;horizontal=1;dashed=1;dashPattern=8 8;endFill=0;" parent="1" target="107" edge="1"><mxGeometry width="50" height="50" relative="1" as="geometry"><mxPoint x="372.5" y="438" as="sourcePoint"/><mxPoint x="-76" y="438" as="targetPoint"/><Array as="points"><mxPoint x="140" y="438"/><mxPoint x="70" y="438"/></Array></mxGeometry></mxCell><mxCell id="222" value="&lt;font style=&quot;font-size: 11px;&quot;&gt;return(itemDelivery)&lt;/font&gt;" style="text;html=1;align=center;verticalAlign=middle;whiteSpace=wrap;rounded=0;" parent="1" vertex="1"><mxGeometry x="170" y="416" width="60" height="30" as="geometry"/></mxCell><mxCell id="223" value="" style="endArrow=none;dashed=1;html=1;dashPattern=1 3;strokeWidth=2;rounded=0;fontSize=11;" parent="1" edge="1"><mxGeometry width="50" height="50" relative="1" as="geometry"><mxPoint x="31" y="445" as="sourcePoint"/><mxPoint x="480" y="446" as="targetPoint"/></mxGeometry></mxCell><mxCell id="225" value="&lt;span style=&quot;background-color: rgb(248, 249, 250);&quot;&gt;1.1.1.5:&lt;/span&gt;&lt;br style=&quot;background-color: rgb(248, 249, 250);&quot;&gt;new(Id, delivId, itmOrder, source, cenderAddress)" style="html=1;verticalAlign=bottom;endArrow=block;edgeStyle=elbowEdgeStyle;elbow=vertical;curved=0;rounded=0;" parent="1" source="107" edge="1"><mxGeometry x="-0.0025" relative="1" as="geometry"><mxPoint x="-76" y="474" as="sourcePoint"/><Array as="points"><mxPoint x="398" y="475"/><mxPoint x="-176" y="125"/><mxPoint x="-176" y="165"/><mxPoint x="-416" y="115"/><mxPoint x="-396" y="165"/><mxPoint x="334" y="125"/><mxPoint x="254" y="175"/><mxPoint x="324" y="115"/></Array><mxPoint as="offset"/><mxPoint x="408" y="475" as="targetPoint"/></mxGeometry></mxCell><mxCell id="224" value="[direct = false &amp;amp; stage = 1]" style="text;html=1;align=center;verticalAlign=middle;whiteSpace=wrap;rounded=0;fontSize=11;" parent="1" vertex="1"><mxGeometry x="68" y="439" width="139" height="30" as="geometry"/></mxCell><mxCell id="227" value="" style="endArrow=open;html=1;rounded=0;horizontal=1;dashed=1;dashPattern=8 8;endFill=0;" parent="1" target="107" edge="1"><mxGeometry width="50" height="50" relative="1" as="geometry"><mxPoint x="442.5" y="490" as="sourcePoint"/><mxPoint x="-75.5" y="490" as="targetPoint"/><Array as="points"><mxPoint x="140.5" y="490"/><mxPoint x="80" y="490"/></Array></mxGeometry></mxCell><mxCell id="228" value="&lt;font style=&quot;font-size: 11px;&quot;&gt;return(itemDelivery)&lt;/font&gt;" style="text;html=1;align=center;verticalAlign=middle;whiteSpace=wrap;rounded=0;" parent="1" vertex="1"><mxGeometry x="180" y="467" width="60" height="30" as="geometry"/></mxCell><mxCell id="229" value="&lt;span style=&quot;background-color: rgb(248, 249, 250);&quot;&gt;1.1.1.6:&amp;nbsp;&lt;/span&gt;addItemToDelivery(itemDelivery" style="html=1;verticalAlign=bottom;endArrow=block;edgeStyle=elbowEdgeStyle;elbow=vertical;curved=0;rounded=0;" parent="1" source="107" target="230" edge="1"><mxGeometry x="0.0449" relative="1" as="geometry"><mxPoint x="-76" y="549" as="sourcePoint"/><Array as="points"><mxPoint x="420" y="549"/><mxPoint x="-20" y="639"/><mxPoint x="-166" y="154"/><mxPoint x="-166" y="194"/><mxPoint x="-406" y="144"/><mxPoint x="-386" y="194"/><mxPoint x="344" y="154"/><mxPoint x="264" y="204"/><mxPoint x="334" y="144"/></Array><mxPoint as="offset"/><mxPoint x="510" y="549" as="targetPoint"/></mxGeometry></mxCell><mxCell id="230" value="" style="html=1;points=[];perimeter=orthogonalPerimeter;outlineConnect=0;targetShapes=umlLifeline;portConstraint=eastwest;newEdgeStyle={&quot;edgeStyle&quot;:&quot;elbowEdgeStyle&quot;,&quot;elbow&quot;:&quot;vertical&quot;,&quot;curved&quot;:0,&quot;rounded&quot;:0};" parent="1" vertex="1"><mxGeometry x="482" y="548" width="10" height="32" as="geometry"/></mxCell><mxCell id="231" value="" style="endArrow=open;html=1;rounded=0;horizontal=1;dashed=1;dashPattern=8 8;endFill=0;" parent="1" source="230" target="107" edge="1"><mxGeometry width="197" height="580" relative="1" as="geometry"><mxPoint x="452.5" y="500" as="sourcePoint"/><mxPoint x="-65.5" y="500" as="targetPoint"/><Array as="points"><mxPoint x="150" y="580"/></Array></mxGeometry></mxCell><mxCell id="232" value="&lt;font style=&quot;font-size: 11px;&quot;&gt;return&lt;/font&gt;" style="text;html=1;align=center;verticalAlign=middle;whiteSpace=wrap;rounded=0;" parent="231" vertex="1"><mxGeometry x="252" y="560" width="60" height="30" as="geometry"/></mxCell><mxCell id="233" value="" style="edgeStyle=elbowEdgeStyle;elbow=vertical;endArrow=classic;html=1;rounded=0;" parent="1" source="235" target="235" edge="1"><mxGeometry width="50" height="50" relative="1" as="geometry"><mxPoint x="-75.5" y="599.236875" as="sourcePoint"/><mxPoint x="-75.5" y="619.236875" as="targetPoint"/></mxGeometry></mxCell><mxCell id="234" value="1.1.1.7: addItemOrder(itemOrder)" style="text;html=1;align=center;verticalAlign=middle;whiteSpace=wrap;rounded=0;" parent="1" vertex="1"><mxGeometry x="89.5" y="587" width="150" height="30" as="geometry"/></mxCell><mxCell id="235" value="" style="html=1;points=[];perimeter=orthogonalPerimeter;outlineConnect=0;targetShapes=umlLifeline;portConstraint=eastwest;newEdgeStyle={&quot;edgeStyle&quot;:&quot;elbowEdgeStyle&quot;,&quot;elbow&quot;:&quot;vertical&quot;,&quot;curved&quot;:0,&quot;rounded&quot;:0};" parent="1" vertex="1"><mxGeometry x="60" y="597" width="10" height="20" as="geometry"/></mxCell><mxCell id="236" value="" style="endArrow=open;html=1;rounded=0;horizontal=1;dashed=1;dashPattern=8 8;endFill=0;" parent="1" source="Bc3wxz4l5R2YYqvCJoII-313" target="140" edge="1"><mxGeometry width="197" height="580" relative="1" as="geometry"><mxPoint x="-180" y="949" as="sourcePoint"/><mxPoint x="-320" y="946" as="targetPoint"/></mxGeometry></mxCell><mxCell id="238" value="&lt;font style=&quot;font-size: 11px;&quot;&gt;return&lt;/font&gt;" style="text;html=1;align=center;verticalAlign=middle;whiteSpace=wrap;rounded=0;" parent="1" vertex="1"><mxGeometry x="-250" y="922" width="60" height="30" as="geometry"/></mxCell><mxCell id="239" value="" style="endArrow=none;dashed=1;html=1;dashPattern=1 3;strokeWidth=2;rounded=0;fontSize=11;entryX=1;entryY=0.949;entryDx=0;entryDy=0;entryPerimeter=0;" parent="1" target="208" edge="1"><mxGeometry width="50" height="50" relative="1" as="geometry"><mxPoint x="26" y="955" as="sourcePoint"/><mxPoint x="818" y="953" as="targetPoint"/></mxGeometry></mxCell><mxCell id="240" value="[itemOrder = null]" style="text;html=1;align=center;verticalAlign=middle;whiteSpace=wrap;rounded=0;fontSize=11;" parent="1" vertex="1"><mxGeometry x="80" y="952" width="90" height="30" as="geometry"/></mxCell><mxCell id="241" value="" style="endArrow=open;html=1;rounded=0;horizontal=1;dashed=1;dashPattern=8 8;endFill=0;" parent="1" source="Bc3wxz4l5R2YYqvCJoII-314" edge="1"><mxGeometry width="197" height="580" relative="1" as="geometry"><mxPoint x="-140" y="983" as="sourcePoint"/><mxPoint x="-317.5" y="983" as="targetPoint"/><Array as="points"><mxPoint x="-219.5" y="983"/><mxPoint x="-239.5" y="983"/></Array></mxGeometry></mxCell><mxCell id="242" value="&lt;font style=&quot;font-size: 11px;&quot;&gt;return(error)&lt;/font&gt;" style="text;html=1;align=center;verticalAlign=middle;whiteSpace=wrap;rounded=0;" parent="1" vertex="1"><mxGeometry x="-250" y="962" width="60" height="30" as="geometry"/></mxCell><mxCell id="243" value="[delivery = null]" style="text;html=1;align=center;verticalAlign=middle;whiteSpace=wrap;rounded=0;fontSize=11;" parent="1" vertex="1"><mxGeometry x="70" y="1000" width="83.5" height="30" as="geometry"/></mxCell><mxCell id="244" value="" style="endArrow=none;dashed=1;html=1;dashPattern=1 3;strokeWidth=2;rounded=0;fontSize=11;entryX=1.001;entryY=0.964;entryDx=0;entryDy=0;entryPerimeter=0;" parent="1" target="205" edge="1"><mxGeometry width="50" height="50" relative="1" as="geometry"><mxPoint x="18" y="1002" as="sourcePoint"/><mxPoint x="832.75" y="1001" as="targetPoint"/></mxGeometry></mxCell><mxCell id="245" value="" style="endArrow=open;html=1;rounded=0;horizontal=1;dashed=1;dashPattern=8 8;endFill=0;" parent="1" source="Bc3wxz4l5R2YYqvCJoII-315" target="140" edge="1"><mxGeometry width="197" height="580" relative="1" as="geometry"><mxPoint x="-120" y="1025" as="sourcePoint"/><mxPoint x="-317.5" y="1024.5" as="targetPoint"/><Array as="points"><mxPoint x="-219.5" y="1024.5"/><mxPoint x="-240" y="1025"/></Array></mxGeometry></mxCell><mxCell id="246" value="&lt;font style=&quot;font-size: 11px;&quot;&gt;return(error)&lt;/font&gt;" style="text;html=1;align=center;verticalAlign=middle;whiteSpace=wrap;rounded=0;" parent="1" vertex="1"><mxGeometry x="-250" y="1000" width="60" height="30" as="geometry"/></mxCell><mxCell id="247" value="&lt;span style=&quot;background-color: rgb(248, 249, 250);&quot;&gt;1.1.1.8:&lt;/span&gt;&lt;br style=&quot;background-color: rgb(248, 249, 250);&quot;&gt;&lt;span style=&quot;background-color: rgb(248, 249, 250);&quot;&gt;insertItemDelivery(itemDelivery&lt;/span&gt;&lt;span style=&quot;background-color: rgb(248, 249, 250);&quot;&gt;)&lt;/span&gt;" style="html=1;verticalAlign=bottom;endArrow=block;edgeStyle=elbowEdgeStyle;elbow=vertical;curved=0;rounded=0;" parent="1" source="107" target="248" edge="1"><mxGeometry x="-0.0063" relative="1" as="geometry"><mxPoint x="-76.00000000000045" y="649.9999999999998" as="sourcePoint"/><Array as="points"><mxPoint x="70" y="650"/><mxPoint x="208" y="690"/><mxPoint x="-32" y="640"/><mxPoint x="-12" y="690"/><mxPoint x="718" y="650"/><mxPoint x="638" y="700"/><mxPoint x="708" y="640"/></Array><mxPoint as="offset"/><mxPoint x="605" y="650" as="targetPoint"/></mxGeometry></mxCell><mxCell id="248" value="" style="html=1;points=[];perimeter=orthogonalPerimeter;outlineConnect=0;targetShapes=umlLifeline;portConstraint=eastwest;newEdgeStyle={&quot;edgeStyle&quot;:&quot;elbowEdgeStyle&quot;,&quot;elbow&quot;:&quot;vertical&quot;,&quot;curved&quot;:0,&quot;rounded&quot;:0};" parent="1" vertex="1"><mxGeometry x="560" y="650" width="10" height="80" as="geometry"/></mxCell><mxCell id="249" value="&lt;span style=&quot;background-color: rgb(248, 249, 250);&quot;&gt;1.1.1.8.1:&lt;br&gt;&lt;/span&gt;addToMap(id,itemDelivery)" style="html=1;verticalAlign=bottom;endArrow=block;edgeStyle=elbowEdgeStyle;elbow=vertical;curved=0;rounded=0;" parent="1" source="248" target="250" edge="1"><mxGeometry x="0.3095" y="13" relative="1" as="geometry"><mxPoint x="615" y="656" as="sourcePoint"/><Array as="points"><mxPoint x="630" y="656"/><mxPoint x="211" y="696"/><mxPoint x="-29" y="646"/><mxPoint x="-9" y="696"/><mxPoint x="721" y="656"/><mxPoint x="641" y="706"/><mxPoint x="711" y="646"/></Array><mxPoint as="offset"/><mxPoint x="699" y="656" as="targetPoint"/></mxGeometry></mxCell><mxCell id="250" value="" style="html=1;points=[];perimeter=orthogonalPerimeter;outlineConnect=0;targetShapes=umlLifeline;portConstraint=eastwest;newEdgeStyle={&quot;edgeStyle&quot;:&quot;elbowEdgeStyle&quot;,&quot;elbow&quot;:&quot;vertical&quot;,&quot;curved&quot;:0,&quot;rounded&quot;:0};" parent="1" vertex="1"><mxGeometry x="654" y="656" width="10" height="18" as="geometry"/></mxCell><mxCell id="252" value="" style="endArrow=open;html=1;rounded=0;horizontal=1;dashed=1;dashPattern=8 8;endFill=0;" parent="1" edge="1"><mxGeometry width="197" height="580" relative="1" as="geometry"><mxPoint x="654" y="672" as="sourcePoint"/><mxPoint x="570" y="672" as="targetPoint"/></mxGeometry></mxCell><mxCell id="253" value="&lt;font style=&quot;font-size: 11px;&quot;&gt;return&lt;/font&gt;" style="text;html=1;align=center;verticalAlign=middle;whiteSpace=wrap;rounded=0;" parent="252" vertex="1"><mxGeometry x="582" y="654" width="60" height="30" as="geometry"/></mxCell><mxCell id="254" value="" style="endArrow=open;html=1;rounded=0;horizontal=1;dashed=1;dashPattern=8 8;endFill=0;" parent="1" target="107" edge="1"><mxGeometry width="197" height="580" relative="1" as="geometry"><mxPoint x="560" y="729" as="sourcePoint"/><mxPoint x="-76" y="729" as="targetPoint"/></mxGeometry></mxCell><mxCell id="255" value="&lt;font style=&quot;font-size: 11px;&quot;&gt;return&lt;/font&gt;" style="text;html=1;align=center;verticalAlign=middle;whiteSpace=wrap;rounded=0;" parent="254" vertex="1"><mxGeometry x="210" y="704" width="60" height="30" as="geometry"/></mxCell><mxCell id="256" value="" style="endArrow=none;dashed=1;html=1;dashPattern=1 3;strokeWidth=2;rounded=0;fontSize=11;exitX=-0.001;exitY=0.958;exitDx=0;exitDy=0;exitPerimeter=0;entryX=1.001;entryY=0.961;entryDx=0;entryDy=0;entryPerimeter=0;" parent="1" source="198" target="198" edge="1"><mxGeometry width="50" height="50" relative="1" as="geometry"><mxPoint x="-200" y="1009" as="sourcePoint"/><mxPoint x="841.04" y="1014.76" as="targetPoint"/></mxGeometry></mxCell><mxCell id="257" value="[stage &amp;lt; 0 OR stage &amp;gt; 0 OR (stage = 1 AND direct = true)]" style="text;html=1;align=center;verticalAlign=middle;whiteSpace=wrap;rounded=0;fontSize=11;" parent="1" vertex="1"><mxGeometry x="63.75" y="1040" width="166.25" height="30" as="geometry"/></mxCell><mxCell id="258" value="" style="endArrow=open;html=1;rounded=0;horizontal=1;dashed=1;dashPattern=8 8;endFill=0;" parent="1" edge="1"><mxGeometry width="197" height="580" relative="1" as="geometry"><mxPoint x="-135" y="1062" as="sourcePoint"/><mxPoint x="-318.5" y="1061.5" as="targetPoint"/><Array as="points"><mxPoint x="-220.5" y="1061.5"/><mxPoint x="-240.5" y="1061.5"/></Array></mxGeometry></mxCell><mxCell id="259" value="&lt;font style=&quot;font-size: 11px;&quot;&gt;return(error)&lt;/font&gt;" style="text;html=1;align=center;verticalAlign=middle;whiteSpace=wrap;rounded=0;" parent="1" vertex="1"><mxGeometry x="-250" y="1040" width="60" height="30" as="geometry"/></mxCell><mxCell id="260" value="&lt;span style=&quot;background-color: rgb(248, 249, 250);&quot;&gt;1.1.1.8.1:&lt;br&gt;&lt;/span&gt;insert(*ItemDelivery fields*)" style="html=1;verticalAlign=bottom;endArrow=block;edgeStyle=elbowEdgeStyle;elbow=vertical;curved=0;rounded=0;" parent="1" target="261" edge="1"><mxGeometry x="0.6667" relative="1" as="geometry"><mxPoint x="570.0000000000002" y="705.21" as="sourcePoint"/><Array as="points"><mxPoint x="630" y="705.21"/><mxPoint x="211" y="745.21"/><mxPoint x="-29" y="695.21"/><mxPoint x="-9" y="745.21"/><mxPoint x="721" y="705.21"/><mxPoint x="641" y="755.21"/><mxPoint x="711" y="695.21"/></Array><mxPoint as="offset"/><mxPoint x="699" y="705.21" as="targetPoint"/></mxGeometry></mxCell><mxCell id="261" value="" style="html=1;points=[];perimeter=orthogonalPerimeter;outlineConnect=0;targetShapes=umlLifeline;portConstraint=eastwest;newEdgeStyle={&quot;edgeStyle&quot;:&quot;elbowEdgeStyle&quot;,&quot;elbow&quot;:&quot;vertical&quot;,&quot;curved&quot;:0,&quot;rounded&quot;:0};" parent="1" vertex="1"><mxGeometry x="654" y="705.21" width="10" height="18" as="geometry"/></mxCell><mxCell id="262" value="" style="endArrow=open;html=1;rounded=0;horizontal=1;dashed=1;dashPattern=8 8;endFill=0;" parent="1" edge="1"><mxGeometry width="197" height="580" relative="1" as="geometry"><mxPoint x="654" y="724.2100000000002" as="sourcePoint"/><mxPoint x="570.0000000000002" y="724.2100000000002" as="targetPoint"/></mxGeometry></mxCell><mxCell id="263" value="&lt;font style=&quot;font-size: 11px;&quot;&gt;return&lt;/font&gt;" style="text;html=1;align=center;verticalAlign=middle;whiteSpace=wrap;rounded=0;" parent="262" vertex="1"><mxGeometry x="580" y="702" width="60" height="30" as="geometry"/></mxCell><mxCell id="264" value="StopLoad&lt;br&gt;ItemDAO" style="shape=umlLifeline;perimeter=lifelinePerimeter;whiteSpace=wrap;html=1;container=0;dropTarget=0;collapsible=0;recursiveResize=0;outlineConnect=0;portConstraint=eastwest;newEdgeStyle={&quot;edgeStyle&quot;:&quot;elbowEdgeStyle&quot;,&quot;elbow&quot;:&quot;vertical&quot;,&quot;curved&quot;:0,&quot;rounded&quot;:0};" parent="1" vertex="1"><mxGeometry x="690" y="9" width="70" height="1080" as="geometry"/></mxCell><mxCell id="283" value="" style="html=1;points=[];perimeter=orthogonalPerimeter;outlineConnect=0;targetShapes=umlLifeline;portConstraint=eastwest;newEdgeStyle={&quot;edgeStyle&quot;:&quot;elbowEdgeStyle&quot;,&quot;elbow&quot;:&quot;vertical&quot;,&quot;curved&quot;:0,&quot;rounded&quot;:0};" parent="264" vertex="1"><mxGeometry x="30" y="767" width="10" height="18" as="geometry"/></mxCell><mxCell id="288" value="" style="html=1;points=[];perimeter=orthogonalPerimeter;outlineConnect=0;targetShapes=umlLifeline;portConstraint=eastwest;newEdgeStyle={&quot;edgeStyle&quot;:&quot;elbowEdgeStyle&quot;,&quot;elbow&quot;:&quot;vertical&quot;,&quot;curved&quot;:0,&quot;rounded&quot;:0};" parent="264" vertex="1"><mxGeometry x="30" y="811" width="10" height="18" as="geometry"/></mxCell><mxCell id="265" value="&lt;span style=&quot;background-color: rgb(248, 249, 250);&quot;&gt;1.1.1.9:&lt;/span&gt;&lt;br style=&quot;background-color: rgb(248, 249, 250);&quot;&gt;&lt;span style=&quot;background-color: rgb(248, 249, 250);&quot;&gt;insertStopLoadItem(stopId,itemDelivery.id)&lt;/span&gt;" style="html=1;verticalAlign=bottom;endArrow=block;edgeStyle=elbowEdgeStyle;elbow=vertical;curved=0;rounded=0;" parent="1" source="107" target="266" edge="1"><mxGeometry x="-0.0063" relative="1" as="geometry"><mxPoint x="-76.75000000000045" y="769.9999999999998" as="sourcePoint"/><Array as="points"><mxPoint x="70" y="770"/><mxPoint x="207.25" y="810"/><mxPoint x="-32.75" y="760"/><mxPoint x="-12.75" y="810"/><mxPoint x="717.25" y="770"/><mxPoint x="637.25" y="820"/><mxPoint x="707.25" y="760"/></Array><mxPoint as="offset"/><mxPoint x="604.25" y="770" as="targetPoint"/></mxGeometry></mxCell><mxCell id="266" value="" style="html=1;points=[];perimeter=orthogonalPerimeter;outlineConnect=0;targetShapes=umlLifeline;portConstraint=eastwest;newEdgeStyle={&quot;edgeStyle&quot;:&quot;elbowEdgeStyle&quot;,&quot;elbow&quot;:&quot;vertical&quot;,&quot;curved&quot;:0,&quot;rounded&quot;:0};" parent="1" vertex="1"><mxGeometry x="559.25" y="770" width="10" height="80" as="geometry"/></mxCell><mxCell id="267" value="" style="endArrow=open;html=1;rounded=0;horizontal=1;dashed=1;dashPattern=8 8;endFill=0;" parent="1" target="107" edge="1"><mxGeometry width="197" height="580" relative="1" as="geometry"><mxPoint x="559.25" y="849" as="sourcePoint"/><mxPoint x="-76.75" y="849" as="targetPoint"/></mxGeometry></mxCell><mxCell id="268" value="&lt;font style=&quot;font-size: 11px;&quot;&gt;return&lt;/font&gt;" style="text;html=1;align=center;verticalAlign=middle;whiteSpace=wrap;rounded=0;" parent="267" vertex="1"><mxGeometry x="210" y="820" width="60" height="30" as="geometry"/></mxCell><mxCell id="282" value="&lt;span style=&quot;background-color: rgb(248, 249, 250);&quot;&gt;1.1.1.9.1:&lt;br&gt;&lt;/span&gt;addToMap(stopid,itemDelivery)" style="html=1;verticalAlign=bottom;endArrow=block;edgeStyle=elbowEdgeStyle;elbow=vertical;curved=0;rounded=0;" parent="1" source="266" target="283" edge="1"><mxGeometry x="0.2337" y="7" relative="1" as="geometry"><mxPoint x="681" y="777" as="sourcePoint"/><Array as="points"><mxPoint x="700" y="776"/><mxPoint x="322" y="817"/><mxPoint x="82" y="767"/><mxPoint x="102" y="817"/><mxPoint x="832" y="777"/><mxPoint x="752" y="827"/><mxPoint x="822" y="767"/></Array><mxPoint as="offset"/><mxPoint x="810" y="777" as="targetPoint"/></mxGeometry></mxCell><mxCell id="284" value="" style="endArrow=open;html=1;rounded=0;horizontal=1;dashed=1;dashPattern=8 8;endFill=0;" parent="1" target="266" edge="1"><mxGeometry width="197" height="580" relative="1" as="geometry"><mxPoint x="720" y="793" as="sourcePoint"/><mxPoint x="681" y="793" as="targetPoint"/></mxGeometry></mxCell><mxCell id="285" value="&lt;font style=&quot;font-size: 11px;&quot;&gt;return&lt;/font&gt;" style="text;html=1;align=center;verticalAlign=middle;whiteSpace=wrap;rounded=0;" parent="284" vertex="1"><mxGeometry x="664" y="770" width="60" height="30" as="geometry"/></mxCell><mxCell id="286" value="*Identical calls to StopUnloadItemDAO as in StopLoadItemDAO" style="text;html=1;align=center;verticalAlign=middle;whiteSpace=wrap;rounded=0;" parent="1" vertex="1"><mxGeometry x="670" y="70" width="30" height="30" as="geometry"/></mxCell><mxCell id="287" value="&lt;span style=&quot;background-color: rgb(248, 249, 250);&quot;&gt;1.1.1.9.2:&lt;br&gt;&lt;/span&gt;insert(stopId,deliveryId)" style="html=1;verticalAlign=bottom;endArrow=block;edgeStyle=elbowEdgeStyle;elbow=vertical;curved=0;rounded=0;" parent="1" target="288" edge="1"><mxGeometry x="-0.0192" y="-5" relative="1" as="geometry"><mxPoint x="570" y="820" as="sourcePoint"/><Array as="points"><mxPoint x="670" y="820"/><mxPoint x="322.75" y="860"/><mxPoint x="82.75" y="810"/><mxPoint x="102.75" y="860"/><mxPoint x="832.75" y="820"/><mxPoint x="752.75" y="870"/><mxPoint x="822.75" y="810"/></Array><mxPoint as="offset"/><mxPoint x="810.75" y="820" as="targetPoint"/></mxGeometry></mxCell><mxCell id="289" value="" style="endArrow=open;html=1;rounded=0;horizontal=1;dashed=1;dashPattern=8 8;endFill=0;" parent="1" source="288" edge="1"><mxGeometry width="197" height="580" relative="1" as="geometry"><mxPoint x="765.75" y="836" as="sourcePoint"/><mxPoint x="570" y="836" as="targetPoint"/></mxGeometry></mxCell><mxCell id="290" value="&lt;font style=&quot;font-size: 11px;&quot;&gt;return&lt;/font&gt;" style="text;html=1;align=center;verticalAlign=middle;whiteSpace=wrap;rounded=0;" parent="289" vertex="1"><mxGeometry x="649" y="814" width="60" height="30" as="geometry"/></mxCell><mxCell id="291" value="Counters&lt;br&gt;DAO" style="shape=umlLifeline;perimeter=lifelinePerimeter;whiteSpace=wrap;html=1;container=0;dropTarget=0;collapsible=0;recursiveResize=0;outlineConnect=0;portConstraint=eastwest;newEdgeStyle={&quot;edgeStyle&quot;:&quot;elbowEdgeStyle&quot;,&quot;elbow&quot;:&quot;vertical&quot;,&quot;curved&quot;:0,&quot;rounded&quot;:0};" parent="1" vertex="1"><mxGeometry x="765.75" y="9" width="56" height="1080" as="geometry"/></mxCell><mxCell id="307" value="" style="html=1;points=[];perimeter=orthogonalPerimeter;outlineConnect=0;targetShapes=umlLifeline;portConstraint=eastwest;newEdgeStyle={&quot;edgeStyle&quot;:&quot;elbowEdgeStyle&quot;,&quot;elbow&quot;:&quot;vertical&quot;,&quot;curved&quot;:0,&quot;rounded&quot;:0};" parent="291" vertex="1"><mxGeometry x="23.25" y="913" width="10" height="18" as="geometry"/></mxCell><mxCell id="292" value="&lt;span style=&quot;background-color: rgb(248, 249, 250);&quot;&gt;1.1.1.10:&lt;/span&gt;&lt;br style=&quot;background-color: rgb(248, 249, 250);&quot;&gt;&lt;span style=&quot;background-color: rgb(248, 249, 250);&quot;&gt;updateCounter(&quot;nextItemDeliveryId,nextId)&lt;/span&gt;" style="html=1;verticalAlign=bottom;endArrow=block;edgeStyle=elbowEdgeStyle;elbow=vertical;curved=0;rounded=0;" parent="1" source="107" target="293" edge="1"><mxGeometry x="-0.0039" y="-34" relative="1" as="geometry"><mxPoint x="-76.75000000000045" y="865.9999999999998" as="sourcePoint"/><Array as="points"><mxPoint x="207.25" y="866"/><mxPoint x="207.25" y="906"/><mxPoint x="-32.75" y="856"/><mxPoint x="-12.75" y="906"/><mxPoint x="717.25" y="866"/><mxPoint x="637.25" y="916"/><mxPoint x="707.25" y="856"/></Array><mxPoint as="offset"/><mxPoint x="604.25" y="866" as="targetPoint"/></mxGeometry></mxCell><mxCell id="293" value="" style="html=1;points=[];perimeter=orthogonalPerimeter;outlineConnect=0;targetShapes=umlLifeline;portConstraint=eastwest;newEdgeStyle={&quot;edgeStyle&quot;:&quot;elbowEdgeStyle&quot;,&quot;elbow&quot;:&quot;vertical&quot;,&quot;curved&quot;:0,&quot;rounded&quot;:0};" parent="1" vertex="1"><mxGeometry x="559.25" y="866" width="10" height="80" as="geometry"/></mxCell><mxCell id="294" value="" style="endArrow=open;html=1;rounded=0;horizontal=1;dashed=1;dashPattern=8 8;endFill=0;" parent="1" target="107" edge="1"><mxGeometry width="197" height="580" relative="1" as="geometry"><mxPoint x="559.25" y="945" as="sourcePoint"/><mxPoint x="-76.75" y="945" as="targetPoint"/></mxGeometry></mxCell><mxCell id="295" value="&lt;font style=&quot;font-size: 11px;&quot;&gt;return&lt;/font&gt;" style="text;html=1;align=center;verticalAlign=middle;whiteSpace=wrap;rounded=0;" parent="294" vertex="1"><mxGeometry x="210" y="916" width="60" height="30" as="geometry"/></mxCell><mxCell id="300" value="&lt;span style=&quot;background-color: rgb(248, 249, 250);&quot;&gt;1.1.1.10.1:&lt;br&gt;&lt;/span&gt;updateMap(counterName,val)" style="html=1;verticalAlign=bottom;endArrow=block;edgeStyle=elbowEdgeStyle;elbow=vertical;curved=0;rounded=0;" parent="1" source="293" target="301" edge="1"><mxGeometry x="-0.0163" relative="1" as="geometry"><mxPoint x="557" y="879" as="sourcePoint"/><Array as="points"><mxPoint x="760" y="880"/><mxPoint x="839.5" y="865"/><mxPoint x="420.5" y="905"/><mxPoint x="180.5" y="855"/><mxPoint x="200.5" y="905"/><mxPoint x="930.5" y="865"/><mxPoint x="850.5" y="915"/><mxPoint x="920.5" y="855"/></Array><mxPoint as="offset"/><mxPoint x="817" y="879" as="targetPoint"/></mxGeometry></mxCell><mxCell id="301" value="" style="html=1;points=[];perimeter=orthogonalPerimeter;outlineConnect=0;targetShapes=umlLifeline;portConstraint=eastwest;newEdgeStyle={&quot;edgeStyle&quot;:&quot;elbowEdgeStyle&quot;,&quot;elbow&quot;:&quot;vertical&quot;,&quot;curved&quot;:0,&quot;rounded&quot;:0};" parent="1" vertex="1"><mxGeometry x="789" y="878" width="10" height="18" as="geometry"/></mxCell><mxCell id="302" value="" style="endArrow=open;html=1;rounded=0;horizontal=1;dashed=1;dashPattern=8 8;endFill=0;" parent="1" source="301" edge="1"><mxGeometry width="197" height="580" relative="1" as="geometry"><mxPoint x="875.75" y="895" as="sourcePoint"/><mxPoint x="569.25" y="895" as="targetPoint"/></mxGeometry></mxCell><mxCell id="303" value="&lt;font style=&quot;font-size: 11px;&quot;&gt;return&lt;/font&gt;" style="text;html=1;align=center;verticalAlign=middle;whiteSpace=wrap;rounded=0;" parent="302" vertex="1"><mxGeometry x="660" y="871" width="60" height="30" as="geometry"/></mxCell><mxCell id="306" value="&lt;span style=&quot;background-color: rgb(248, 249, 250);&quot;&gt;1.1.1.10.2:&lt;br&gt;&lt;/span&gt;addToMap(id,itemDelivery)" style="html=1;verticalAlign=bottom;endArrow=block;edgeStyle=elbowEdgeStyle;elbow=vertical;curved=0;rounded=0;" parent="1" target="307" edge="1"><mxGeometry relative="1" as="geometry"><mxPoint x="569.25" y="923.9999999999998" as="sourcePoint"/><mxPoint x="880.75" y="928.9999999999998" as="targetPoint"/></mxGeometry></mxCell><mxCell id="308" value="" style="endArrow=open;html=1;rounded=0;horizontal=1;dashed=1;dashPattern=8 8;endFill=0;" parent="1" source="307" edge="1"><mxGeometry width="197" height="580" relative="1" as="geometry"><mxPoint x="875.75" y="938" as="sourcePoint"/><mxPoint x="569.25" y="938" as="targetPoint"/></mxGeometry></mxCell><mxCell id="309" value="&lt;font style=&quot;font-size: 11px;&quot;&gt;return&lt;/font&gt;" style="text;html=1;align=center;verticalAlign=middle;whiteSpace=wrap;rounded=0;" parent="308" vertex="1"><mxGeometry x="649" y="927" width="60" height="30" as="geometry"/></mxCell><mxCell id="Bc3wxz4l5R2YYqvCJoII-310" value="&lt;font style=&quot;font-size: 10px;&quot;&gt;DeliveryController&lt;/font&gt;" style="rounded=0;whiteSpace=wrap;html=1;" parent="1" vertex="1"><mxGeometry x="-104" y="102" width="100" height="20" as="geometry"/></mxCell><mxCell id="Bc3wxz4l5R2YYqvCJoII-311" value="&lt;span style=&quot;background-color: rgb(248, 249, 250);&quot;&gt;1.1.1:&lt;/span&gt;" style="html=1;verticalAlign=bottom;endArrow=block;edgeStyle=elbowEdgeStyle;elbow=vertical;curved=0;rounded=0;" parent="1" target="107" edge="1"><mxGeometry x="-0.1064" relative="1" as="geometry"><mxPoint y="113" as="sourcePoint"/><Array as="points"><mxPoint x="20" y="113"/><mxPoint x="-86" y="152.5"/><mxPoint x="-326" y="102.5"/><mxPoint x="-306" y="152.5"/><mxPoint x="424" y="112.5"/><mxPoint x="344" y="162.5"/><mxPoint x="414" y="102.5"/></Array><mxPoint y="1" as="offset"/><mxPoint x="50" y="112.5" as="targetPoint"/></mxGeometry></mxCell><mxCell id="Bc3wxz4l5R2YYqvCJoII-313" value="&lt;font style=&quot;font-size: 10px;&quot;&gt;DeliveryController&lt;/font&gt;" style="rounded=0;whiteSpace=wrap;html=1;" parent="1" vertex="1"><mxGeometry x="-104" y="936" width="100" height="20" as="geometry"/></mxCell><mxCell id="Bc3wxz4l5R2YYqvCJoII-314" value="&lt;font style=&quot;font-size: 10px;&quot;&gt;DeliveryController&lt;br&gt;[itemOrder =&amp;nbsp; null]&lt;br&gt;&lt;/font&gt;" style="rounded=0;whiteSpace=wrap;html=1;" parent="1" vertex="1"><mxGeometry x="-114" y="968" width="110" height="32" as="geometry"/></mxCell><mxCell id="Bc3wxz4l5R2YYqvCJoII-315" value="&lt;font style=&quot;font-size: 10px;&quot;&gt;DeliveryController&lt;br&gt;[delivery =&amp;nbsp; null]&lt;br&gt;&lt;/font&gt;" style="rounded=0;whiteSpace=wrap;html=1;" parent="1" vertex="1"><mxGeometry x="-114" y="1008" width="110" height="32" as="geometry"/></mxCell><mxCell id="Bc3wxz4l5R2YYqvCJoII-316" value="&lt;font style=&quot;font-size: 9px;&quot;&gt;DeliveryController&lt;br&gt;[stage &amp;lt; 0 OR stage &amp;gt; 0 OR (stage = 1 AND direct = true)]&lt;br&gt;&lt;/font&gt;" style="rounded=0;whiteSpace=wrap;html=1;" parent="1" vertex="1"><mxGeometry x="-134" y="1047" width="130" height="42" as="geometry"/></mxCell><mxCell id="Bc3wxz4l5R2YYqvCJoII-318" value="" style="endArrow=open;html=1;rounded=0;horizontal=1;dashed=1;dashPattern=8 8;endFill=0;" parent="1" edge="1"><mxGeometry width="197" height="580" relative="1" as="geometry"><mxPoint x="60" y="1061" as="sourcePoint"/><mxPoint x="4" y="1060" as="targetPoint"/></mxGeometry></mxCell><mxCell id="Bc3wxz4l5R2YYqvCJoII-319" value="&lt;font style=&quot;font-size: 11px;&quot;&gt;return&lt;br&gt;(error)&lt;/font&gt;" style="text;html=1;align=center;verticalAlign=middle;whiteSpace=wrap;rounded=0;" parent="1" vertex="1"><mxGeometry x="3" y="1045" width="60" height="25" as="geometry"/></mxCell><mxCell id="Bc3wxz4l5R2YYqvCJoII-320" value="&lt;font style=&quot;font-size: 11px;&quot;&gt;return&lt;br&gt;(error)&lt;/font&gt;" style="text;html=1;align=center;verticalAlign=middle;whiteSpace=wrap;rounded=0;" parent="1" vertex="1"><mxGeometry x="10" y="1002.5" width="60" height="25" as="geometry"/></mxCell><mxCell id="Bc3wxz4l5R2YYqvCJoII-321" value="" style="endArrow=open;html=1;rounded=0;horizontal=1;dashed=1;dashPattern=8 8;endFill=0;entryX=0.001;entryY=0.932;entryDx=0;entryDy=0;entryPerimeter=0;" parent="1" target="198" edge="1"><mxGeometry width="197" height="580" relative="1" as="geometry"><mxPoint x="58" y="1014.83" as="sourcePoint"/><mxPoint x="20" y="1014.83" as="targetPoint"/></mxGeometry></mxCell><mxCell id="Bc3wxz4l5R2YYqvCJoII-324" value="&lt;font style=&quot;font-size: 11px;&quot;&gt;return&lt;br&gt;(error)&lt;/font&gt;" style="text;html=1;align=center;verticalAlign=middle;whiteSpace=wrap;rounded=0;" parent="1" vertex="1"><mxGeometry x="10" y="957" width="60" height="25" as="geometry"/></mxCell><mxCell id="Bc3wxz4l5R2YYqvCJoII-325" value="" style="endArrow=open;html=1;rounded=0;horizontal=1;dashed=1;dashPattern=8 8;endFill=0;entryX=0.001;entryY=0.932;entryDx=0;entryDy=0;entryPerimeter=0;" parent="1" edge="1"><mxGeometry width="197" height="580" relative="1" as="geometry"><mxPoint x="58" y="969.3299999999999" as="sourcePoint"/><mxPoint x="5" y="969.5" as="targetPoint"/></mxGeometry></mxCell><mxCell id="Bc3wxz4l5R2YYqvCJoII-326" value="&lt;font style=&quot;font-size: 11px;&quot;&gt;return&lt;br&gt;&lt;/font&gt;" style="text;html=1;align=center;verticalAlign=middle;whiteSpace=wrap;rounded=0;" parent="1" vertex="1"><mxGeometry x="10" y="931" width="60" height="25" as="geometry"/></mxCell><mxCell id="Bc3wxz4l5R2YYqvCJoII-327" value="" style="endArrow=open;html=1;rounded=0;horizontal=1;dashed=1;dashPattern=8 8;endFill=0;entryX=0.001;entryY=0.932;entryDx=0;entryDy=0;entryPerimeter=0;" parent="1" edge="1"><mxGeometry width="197" height="580" relative="1" as="geometry"><mxPoint x="57" y="949.3299999999999" as="sourcePoint"/><mxPoint x="4" y="949.5" as="targetPoint"/></mxGeometry></mxCell><mxCell id="Bc3wxz4l5R2YYqvCJoII-328" value="Add item to delivery sequence diagram part 1" style="text;html=1;strokeColor=none;fillColor=none;align=center;verticalAlign=middle;whiteSpace=wrap;rounded=0;fontStyle=5" parent="1" vertex="1"><mxGeometry x="-230" width="190" height="30" as="geometry"/></mxCell><mxCell id="Bc3wxz4l5R2YYqvCJoII-329" value="Add item to delivery sequence diagram part 2" style="text;html=1;strokeColor=none;fillColor=none;align=center;verticalAlign=middle;whiteSpace=wrap;rounded=0;fontStyle=5" parent="1" vertex="1"><mxGeometry x="312" y="9" width="128" height="30" as="geometry"/></mxCell></root></mxGraphModel></diagram></mxfile>